<?xml version="1.0" standalone="no"?>
<!DOCTYPE svg PUBLIC "-//W3C//DTD SVG 20010904//EN"
 "http://www.w3.org/TR/2001/REC-SVG-20010904/DTD/svg10.dtd">
<svg version="1.0" xmlns="http://www.w3.org/2000/svg"
 width="1024.000000pt" height="1024.000000pt" viewBox="0 0 1024.000000 1024.000000"
 preserveAspectRatio="xMidYMid meet">

<g transform="translate(0.000000,1024.000000) scale(0.100000,-0.100000)"
fill="#000000" stroke="none">
<path d="M3513 8354 c-7 -18 16 -171 38 -253 108 -403 499 -711 901 -711 l100
0 -6 -32 c-3 -18 -8 -63 -12 -99 -4 -37 -10 -72 -14 -79 -5 -9 -26 -4 -76 18
-266 117 -472 153 -669 119 -449 -79 -742 -380 -836 -858 -19 -94 -16 -392 5
-514 74 -438 275 -867 535 -1138 145 -151 292 -250 430 -291 62 -18 215 -22
257 -6 15 6 29 8 31 6 3 -3 -43 -108 -101 -234 -120 -261 -127 -290 -73 -322
37 -23 65 -25 88 -7 21 16 67 109 212 422 63 138 161 347 217 465 56 118 211
447 345 730 133 283 304 645 379 804 75 158 136 290 136 291 0 2 77 162 171
357 94 194 220 459 279 588 60 129 154 329 209 445 56 115 101 217 101 226 0
24 -66 79 -94 79 -13 0 -33 -8 -44 -17 -17 -15 -270 -544 -437 -913 -26 -58
-53 -111 -59 -118 -10 -10 -30 -10 -107 4 -187 33 -399 2 -599 -86 -52 -23
-101 -44 -109 -47 -33 -14 29 340 83 474 66 162 186 303 316 372 83 44 95 81
53 163 -24 50 -47 54 -116 19 -123 -60 -261 -197 -350 -345 -44 -74 -97 -221
-118 -325 l-12 -64 -32 129 c-59 238 -152 395 -311 524 -126 101 -261 165
-425 201 -120 26 -280 39 -286 23z"/>
<path d="M5978 7391 l-33 -29 -5 -544 -5 -543 -256 -5 c-229 -4 -259 -7 -277
-23 -11 -10 -41 -68 -67 -128 -26 -61 -72 -155 -102 -210 -66 -121 -75 -159
-42 -183 22 -15 57 -16 387 -10 l362 7 0 -542 0 -543 34 -34 34 -34 257 0 257
0 34 34 34 34 0 1357 0 1357 -34 34 -34 34 -256 0 -256 0 -32 -29z"/>
<path d="M6722 6838 c-9 -9 -12 -211 -12 -850 0 -787 1 -838 18 -846 9 -5 99
-6 199 -3 l183 6 32 33 33 32 2 163 c1 89 2 203 3 253 l0 91 51 6 c61 7 96 28
110 65 6 16 9 107 7 230 l-3 204 -28 24 c-22 19 -39 24 -82 24 l-53 0 -4 243
c-4 343 1 337 -276 337 -117 0 -172 -4 -180 -12z"/>
<path d="M6009 3186 c-168 -48 -298 -185 -340 -356 -19 -80 -17 -242 5 -315
39 -128 109 -223 212 -285 275 -165 650 -18 729 285 18 69 20 222 4 297 -32
149 -127 271 -265 340 -81 40 -89 42 -192 44 -68 2 -124 -1 -153 -10z m262
-167 c54 -24 117 -86 149 -148 32 -65 47 -186 32 -273 -21 -119 -75 -198 -175
-250 -34 -19 -58 -23 -132 -23 -102 0 -151 18 -217 82 -88 85 -123 266 -79
411 56 186 246 276 422 201z"/>
<path d="M7180 3186 c-161 -45 -291 -178 -335 -342 -21 -78 -21 -250 0 -328
73 -277 370 -424 649 -323 206 75 321 275 302 527 -3 47 -13 107 -21 133 -50
164 -177 292 -330 331 -70 19 -201 19 -265 2z m263 -168 c61 -27 129 -102 158
-176 32 -82 32 -243 1 -323 -48 -120 -141 -188 -268 -197 -103 -7 -163 16
-235 87 -65 66 -88 120 -96 233 -10 134 22 242 92 313 91 91 226 115 348 63z"/>
<path d="M8215 3187 c-155 -52 -221 -141 -214 -290 4 -61 10 -83 34 -123 42
-67 93 -95 275 -149 175 -53 216 -74 236 -121 45 -108 -32 -193 -176 -194
-121 0 -191 38 -227 125 l-18 45 -84 0 -84 0 7 -42 c9 -61 51 -142 92 -177 99
-87 257 -120 416 -87 82 18 122 37 171 85 54 51 79 104 85 182 6 92 -16 155
-74 209 -56 51 -114 77 -280 126 -110 32 -134 43 -166 75 -31 30 -38 44 -38
76 0 79 62 123 175 123 99 0 157 -35 190 -113 l15 -37 85 0 85 0 -6 28 c-13
58 -57 141 -92 175 -20 20 -64 48 -97 63 -51 24 -76 28 -165 31 -69 2 -119 -2
-145 -10z"/>
<path d="M1582 2683 l3 -498 80 0 80 0 0 353 c0 193 2 352 5 352 5 0 220 -304
403 -568 l99 -143 82 3 81 3 0 495 0 495 -79 3 c-53 2 -82 -1 -87 -9 -4 -7 -5
-168 -2 -358 4 -232 2 -343 -5 -336 -5 6 -112 156 -238 335 -125 179 -236 335
-247 348 -18 19 -30 22 -99 22 l-78 0 2 -497z"/>
<path d="M2697 3174 c-11 -12 -8 -622 4 -694 14 -87 39 -140 94 -199 87 -93
232 -136 386 -113 181 26 293 126 328 292 8 38 11 159 9 385 l-3 330 -82 0
-82 0 -3 -340 -3 -340 -27 -57 c-40 -85 -86 -112 -199 -116 -81 -4 -92 -2
-139 24 -36 20 -60 42 -78 73 l-27 46 -5 355 -5 355 -80 3 c-45 1 -84 0 -88
-4z"/>
<path d="M3724 3166 c-3 -7 -4 -40 -2 -72 l3 -59 147 -3 148 -3 2 -422 3 -422
80 0 80 0 3 422 2 422 153 3 152 3 0 70 0 70 -383 3 c-317 2 -383 0 -388 -12z"/>
<path d="M4705 3168 c-3 -7 -4 -231 -3 -498 l3 -485 85 0 85 0 0 183 0 182
101 0 101 0 105 -182 105 -183 83 -3 c49 -2 87 2 95 8 11 9 -7 45 -91 184 -57
95 -106 180 -109 188 -4 11 8 24 40 43 108 63 155 144 155 270 0 95 -24 160
-79 215 -78 78 -104 83 -409 88 -211 3 -263 1 -267 -10z m476 -149 c106 -32
144 -164 72 -250 -48 -56 -91 -69 -240 -69 l-133 0 0 165 0 165 131 0 c73 0
149 -5 170 -11z"/>
</g>
</svg>
